<!--?xml version="1.0" encoding="utf-8"?-->
<!-- Generator: Adobe Illustrator 21.1.0, SVG Export Plug-In . SVG Version: 6.00 Build 0)  -->
<svg version="1.1" xmlns="http://www.w3.org/2000/svg" xmlns:xlink="http://www.w3.org/1999/xlink" x="0px" y="0px" viewBox="0 0 512 640" xml:space="preserve">
<style type="text/css">
	.st0{fill:none;stroke:#FFFFFF;stroke-miterlimit:10;}
	.st1{fill:#FFFFFF;}
	.st2{font-family:'HelveticaNeue-Bold';}
	.st3{font-size:53.0626px;}
	.st4{letter-spacing:-1;}
</style>
<g id="Layer_2">
</g>
<g id="Layer_1">
	<path class="st0 mtBSLMOp_0" d="M99.7,342.3c0,6.3,5.1,11,11,11c6.3,0,11-5.1,11-11c0-0.6,0-1.2-0.3-1.8c1.5,0.6,3.3,0.9,5.1,0.9
		c7.7,0,14-6.3,14-14c0-5.1-2.7-9.2-6.6-11.6c3.9-3,6.8-7.7,7.1-13.1c1.5,0.9,3.3,1.5,5.4,1.5c6.3,0,11-5.1,11-11s-5.1-11-11-11
		c-4.5,0-8.6,2.7-10.1,6.8c-3.3-3.6-8-5.7-13.1-5.7c-0.3,0-0.6,0-0.9,0c0.9-1.5,1.5-3.3,1.5-5.4c0-6.3-5.1-11-11-11
		c-6.3,0-11,5.1-11,11c0,5.4,3.6,9.8,8.6,10.7c-3.3,3.3-5.1,7.7-5.1,12.5c0,7.7,4.8,14.3,11.3,17c-2.4,2.4-3.6,5.7-3.6,9.5
		c0,1.5,0.3,2.7,0.6,3.9c-0.9-0.3-1.8-0.3-2.7-0.3C104.8,331.3,99.7,336.4,99.7,342.3z M111,347.7c-3,0-5.1-2.4-5.1-5.1
		c0-2.7,2.4-5.1,5.1-5.1s5.1,2.4,5.1,5.1C116.1,345.3,114,347.7,111,347.7z M127.1,335.8c-4.5,0-8-3.6-8-8s3.6-8,8-8
		c4.5,0,8,3.6,8,8C135.2,332.2,131.6,335.8,127.1,335.8z M147.4,288.1c3,0,5.1,2.4,5.1,5.1s-2.4,5.1-5.1,5.1s-5.1-2.4-5.1-5.1
		S144.4,288.1,147.4,288.1z M107.8,278c0-3,2.4-5.1,5.1-5.1s5.1,2.4,5.1,5.1s-2.4,5.1-5.1,5.1C110.2,283.1,107.8,281,107.8,278z
		 M111.3,301.5c0-6.8,5.7-12.2,12.2-12.2c6.6,0,12.2,5.4,12.2,12.2c0,6.8-5.7,12.2-12.2,12.2C117,313.7,111.3,308.4,111.3,301.5z"></path>
	<path class="st0 mtBSLMOp_1" d="M152.4,367.3c5.4,0,9.8-4.5,9.8-9.8s-4.5-9.8-9.8-9.8s-9.8,4.5-9.8,9.8S147.1,367.3,152.4,367.3z M152.4,353.6
		c2.1,0,3.9,1.8,3.9,3.9c0,2.1-1.8,3.9-3.9,3.9c-2.1,0-3.9-1.8-3.9-3.9C148.6,355.4,150.3,353.6,152.4,353.6z"></path>
	<g>
		<path class="st0 mtBSLMOp_2" d="M51.3,320.3c0,8.5,1.5,17.1,4.5,25.4c9.2,25.2,31.1,43.5,57.4,48.2c26.4,4.6,53.2-5.1,70.4-25.6
			c1.2-1.3,1-3.4-0.3-4.5c-1.3-1.2-3.4-1-4.5,0.3c0,0-0.1,0.1-0.1,0.1c-15.7,18.8-40.3,27.7-64.4,23.4c-24.1-4.3-44.1-21-52.5-44.1
			s-3.8-48.7,11.9-67.5c1.2-1.3,1-3.4-0.3-4.5s-3.4-1-4.5,0.3c0,0-0.1,0.1-0.1,0.1c-10.8,12.8-16.7,28.6-17.5,44.8
			C51.3,317.8,51.3,319.1,51.3,320.3z M49.1,320c0-42.7,34.5-77.2,77.2-77.2c42.7,0,77.2,34.5,77.2,77.2s-34.5,77.2-77.2,77.2
			C83.6,397.2,49.1,362.7,49.1,320z M41.8,320c0,46.6,37.8,84.4,84.4,84.4c46.6,0,84.4-37.8,84.4-84.4s-37.8-84.4-84.4-84.4
			C79.7,235.6,41.8,273.4,41.8,320z"></path>
	</g>
	<text transform="matrix(1 0 0 1 222.5497 332.7846)" class="st1 st2 st3 st4">OpenAgar</text>
</g>
<style>.mtBSLMOp_0{stroke-dasharray:510 512;stroke-dashoffset:511;animation:mtBSLMOp_draw 3000ms linear 0ms forwards;}.mtBSLMOp_1{stroke-dasharray:86 88;stroke-dashoffset:87;animation:mtBSLMOp_draw 3000ms linear 0ms forwards;}.mtBSLMOp_2{stroke-dasharray:1487 1489;stroke-dashoffset:1488;animation:mtBSLMOp_draw 3000ms linear 0ms forwards;}@keyframes mtBSLMOp_draw{100%{stroke-dashoffset:0;}}@keyframes mtBSLMOp_fade{0%{stroke-opacity:1;}94.44444444444444%{stroke-opacity:1;}100%{stroke-opacity:0;}}</style></svg>
